<svg width="118" height="36" viewBox="0 0 118 36" fill="none" xmlns="http://www.w3.org/2000/svg">
<g clip-path="url(#clip0_1_16166)">
<path d="M63.5823 17.1365C70.9888 13.8476 72.0842 3.11499 61.5489 3.11499H49.3484L44.8396 11.7703H46.9614L41.5684 32.4565H55.7138C66.0336 32.5429 70.6748 20.646 63.5823 17.1365ZM55.7138 24.9264H52.1774L53.5035 20.2527H56.8629C60.8414 21.0315 58.3662 25.0994 55.7138 24.9264ZM57.8356 14.9726H54.8298L55.7138 10.9047H59.0732C62.3193 11.6837 59.5156 15.1458 57.8356 14.9726Z" fill="#005FAF"/>
<path d="M92.5436 14.169L97.1753 6.16418L90.908 2.96362L90.0904 3.95139C86.7094 2.19922 69.0051 4.6185 67.8965 21.7165C68.5591 36.0597 84.9757 33.4796 86.586 32.5695L91.1011 23.4317C86.679 26.2833 77.6244 27.6522 77.2414 19.0863C78.0356 12.0225 86.5543 9.38458 92.5436 14.169ZM115.656 3.11501H101.417L96.8914 11.5113H99.2165L88.4857 32.4565H98.8725L101.005 27.4046H107.381L107.54 32.4565H117.101L115.656 3.11501ZM103.894 20.6026L107.381 12.4541L107.54 20.6026H103.894Z" fill="#005FAF"/>
<path d="M26.7353 31.0557L27.2884 30.8986L26.6818 30.0779L26.7353 31.0557ZM17.6543 30.916L17.5473 31.6496C17.8226 31.6233 18.1616 31.8556 18.2967 31.3352C18.2866 30.9296 17.9712 30.9073 17.6543 30.916ZM22.0612 30.8986C22.0153 30.6988 21.845 30.5517 21.4188 30.6892L21.5616 31.4399C21.9116 31.364 22.0916 31.1612 22.0612 30.8986ZM12.1059 30.2841L11.9355 30.9512C12.2093 30.9624 12.53 31.1798 12.7118 30.7845C12.7239 30.5368 12.7343 30.2901 12.1059 30.2841ZM21.6865 31.9991L21.8115 32.7677C22.1038 32.7749 22.3705 32.6029 22.2932 32.2438C22.2186 31.8983 21.9223 31.9529 21.6865 31.9991Z" fill="#005FAF"/>
<path d="M33.2897 3.51065C23.8424 -1.20109 12.5597 -1.07004 3.55835 3.30515C-1.08329 11.3048 -1.23108 22.4976 3.55835 32.4109C13.4751 37.3239 24.4432 37.0003 33.3594 32.6164C37.5498 24.1998 38.2418 14.072 33.2897 3.51065ZM17.3342 27.3977L16.7742 27.4039C16.6355 25.889 16.2657 24.6158 15.4722 23.6414C11.8337 19.1744 4.39592 22.5375 6.30708 14.9459C7.30081 11.0648 18.6357 8.77583 17.3342 27.3977ZM6.32052 19.8996C7.11499 21.4827 12.0925 21.7421 13.8204 22.954C16.5613 24.8761 16.1678 27.4046 16.1678 27.4046H15.5214C14.2488 23.5858 10.6772 26.6094 7.81644 25.581C6.02037 24.9555 4.71635 22.2447 6.32052 19.8996ZM15.3893 32.3486L15.657 30.2701L16.1387 30.3051L15.9245 32.5931C15.7085 33.601 14.1735 33.4662 13.9798 32.5057L14.2295 30.1304L14.8004 30.218L14.5507 32.2089C14.5824 32.8678 15.2575 32.8284 15.3893 32.3486ZM12.8262 32.9162L12.2771 32.7864C12.3415 32.3422 12.8796 31.4383 11.8159 31.4383L11.5199 32.6196L10.914 32.5085L11.5576 29.6725C13.1309 29.8403 13.2685 30.2689 13.2997 30.729C13.2376 31.0859 13.1405 31.3351 12.8264 31.3961C13.194 31.7227 12.8307 32.4072 12.8262 32.9162ZM9.33872 29.7397C9.18738 29.9363 8.88444 30.623 8.84059 31.1703C8.79394 31.7503 9.36306 31.6282 9.50476 31.5604C9.61909 31.5061 9.70402 31.0402 9.70402 31.0402L9.30551 30.9102L9.43835 30.5203L10.3352 30.8129L9.90352 32.2762L9.53823 32.1784L9.57144 31.9508C9.12426 32.1503 8.3057 32.0007 8.20962 31.4956C8.11354 31.0899 8.40456 29.8596 8.8738 29.2848C9.32985 28.7259 10.4409 29.2722 10.4681 29.6099C10.4949 29.9465 10.3593 30.3252 10.3593 30.3252L9.94104 30.248C9.94104 30.248 9.96665 30.1264 10.0032 29.9348C10.0417 29.7318 9.50096 29.5285 9.33872 29.7397ZM17.4947 32.1213L17.3877 33.3791L16.9418 33.3617L17.1022 30.3748C18.2159 30.3974 18.8542 30.5483 18.8329 31.3182C18.7665 32.37 17.8965 32.1335 17.4947 32.1213ZM18.6048 27.4044H17.8587C17.7925 24.8178 18.3006 20.0867 16.9124 16.605C15.8606 13.9656 13.1988 12.7783 12.6089 10.6461C11.675 7.27135 13.2645 3.61985 18.6048 3.33866C23.2345 3.804 24.6569 7.30311 23.8672 10.561C22.5095 13.8184 21.1514 13.3503 19.4608 16.595C18.08 20.0733 18.6058 24.6302 18.6048 27.4044ZM26.8788 32.1913L26.3614 32.366L26.2007 29.3618L26.8073 29.2047L28.306 31.6847L27.8956 31.9468L27.396 31.2484L26.8251 31.4579L26.8788 32.1913ZM20.8427 27.4044H20.2459C20.7377 20.7615 29.2643 22.2047 30.0436 19.8996C31.3912 22.1848 30.9067 24.1117 29.4995 25.0995C26.0027 27.555 22.6496 23.2823 20.8427 27.4044ZM24.0066 30.7593L24.2743 32.1392C24.4409 32.4571 24.554 32.3983 24.8095 32.3663C25.1058 32.1563 25.044 31.9518 24.988 31.685L25.5054 31.6153C25.6402 32.6149 25.1548 32.7169 24.7917 32.7854C24.0132 32.84 23.8606 32.6916 23.65 31.7026C23.5273 30.8561 23.3153 29.9621 24.0424 29.7988C25.2359 29.6204 25.1654 30.1463 25.2734 30.5148L24.756 30.6024C24.6734 30.2857 24.5545 30.1602 24.2921 30.1835C24.053 30.291 23.9549 30.4649 24.0066 30.7593ZM22.9184 32.1913C22.9432 32.6263 22.7924 32.9152 22.5079 33.0123L21.2947 33.2567L20.813 30.3748C21.062 30.3351 22.2826 29.8973 22.5792 30.6895C22.7254 31.1732 22.5738 31.3467 22.4007 31.5626C22.729 31.6659 22.8398 31.916 22.9184 32.1913ZM19.8028 17.729C22.5057 10.2786 28.6904 11.5952 30.0621 14.9461C31.9413 21.6701 25.8902 19.8261 22.0141 22.5834C20.5491 23.8308 19.7782 25.2618 19.7668 27.4312H19.1026C19.0628 23.0617 18.9906 19.9676 19.8028 17.729Z" fill="#005FAF"/>
</g>
<defs>
<clipPath id="clip0_1_16166">
<rect width="117.257" height="36" fill="white"/>
</clipPath>
</defs>
</svg>
