<svg width="144" height="36" viewBox="0 0 144 36" fill="none" xmlns="http://www.w3.org/2000/svg">
<path d="M61.6756 23.9703C61.6756 30.2775 58.5245 33.6549 52.1557 33.6549C49.2416 33.6549 46.2609 33.138 43.8891 31.2073L46.7009 26.9332C48.2594 28.2775 49.9867 29.1049 52.0534 29.1049C55.1363 29.1049 56.5926 27.3824 56.5926 25.0042V23.3841H56.5244C55.3717 25.0042 53.4073 25.5905 51.8829 25.5905C47.0045 25.5905 43.7852 22.0067 43.7852 16.9398C43.7852 12.4939 46.6311 8.21973 51.3066 8.21973C54.1866 8.21973 56.151 9.63343 56.9302 10.839H56.9984V8.63261H61.674V23.9703H61.6756ZM52.9349 21.0405C55.2386 21.0405 57 19.0752 57 16.9051C57 14.735 55.2386 12.7697 52.9349 12.7697C50.6312 12.7697 48.8698 14.735 48.8698 16.9051C48.8698 19.0752 50.6312 21.0405 52.9349 21.0405Z" fill="#414042"/>
<path d="M74.2793 8.21973C79.3607 8.21973 83.4275 11.6665 83.4275 17.0075C83.4275 22.3502 79.3624 25.7953 74.2793 25.7953C69.1979 25.7953 65.1328 22.3485 65.1328 17.0075C65.1328 11.6665 69.1979 8.21973 74.2793 8.21973ZM74.2793 21.247C76.82 21.247 78.3445 19.5244 78.3445 17.0075C78.3445 14.4922 76.82 12.768 74.2793 12.768C71.7386 12.768 70.2142 14.4906 70.2142 17.0075C70.2142 19.5244 71.7386 21.247 74.2793 21.247Z" fill="#414042"/>
<path d="M86.8809 8.63261H91.5564V10.839H91.6246C92.4038 9.63343 94.3682 8.21973 96.6719 8.21973C101.55 8.21973 104.77 11.8035 104.77 16.8704C104.77 21.5228 101.924 25.7969 97.2482 25.7969C95.1475 25.7969 93.1831 25.2106 92.0304 23.5905H91.9623V33.2404H86.8809V8.63261ZM95.6215 21.247C98.1622 21.247 99.6866 19.5244 99.6866 17.0075C99.6866 14.4922 98.1622 12.768 95.6215 12.768C93.0808 12.768 91.5564 14.4906 91.5564 17.0075C91.5564 19.5244 93.0808 21.247 95.6215 21.247Z" fill="#414042"/>
<path d="M118.082 23.28H118.014C116.897 25.0719 114.863 25.7952 112.796 25.7952C109.713 25.7952 106.936 24.0033 106.936 20.626C106.936 14.8357 113.847 14.7333 118.082 14.7333C118.082 12.9067 116.592 11.7341 114.83 11.7341C113.17 11.7341 111.782 12.4922 110.697 13.7325L107.986 10.9067C109.85 9.1148 112.559 8.21802 115.236 8.21802C121.165 8.21802 122.758 11.2849 122.758 16.8687V25.3824H118.082V23.28ZM116.829 18.0413C115.27 18.0413 111.814 18.1784 111.814 20.4542C111.814 21.6945 113.101 22.2808 114.22 22.2808C116.218 22.2808 118.082 21.2122 118.082 19.1445V18.0413H116.829Z" fill="#414042"/>
<path d="M135.429 28.1057C134.073 31.6549 133.294 33.6549 128.45 33.6549C127.162 33.6549 125.875 33.4484 124.656 33.0339L125.333 28.7944C126.112 29.1396 126.857 29.3113 127.704 29.3113C130.008 29.3113 130.381 28.3122 131.093 26.4856L131.464 25.5211L124.248 8.63257H129.737L133.971 19.6962H134.039L137.664 8.63257H142.882L135.429 28.1057Z" fill="#414042"/>
<path d="M37.5643 19.247C37.3792 11.7259 32.9781 10.4724 28.3577 10.4724C23.7358 10.4724 13.008 10.4724 10.5436 10.4724C7.95744 10.4724 8.45097 7.49472 10.1897 7.49472C16.4741 7.49472 30.1078 7.5261 30.1078 7.5261C30.1078 7.5261 30.2929 4.20322 26.2878 2.63757C22.2828 1.06862 6.94116 0.128902 3.73647 5.08184C0.531779 10.0331 0.963617 22.2561 1.76398 26.7069C2.56434 31.1578 5.76903 33.9786 11.0063 34.3535C16.2435 34.7301 29.1824 35.2305 32.8807 33.351C36.5773 31.47 37.7478 26.7697 37.5643 19.247ZM31.491 23.0967V25.6582C31.491 26.304 30.9763 26.8275 30.3416 26.8275C29.7068 26.8275 29.1922 26.304 29.1922 25.6582V23.0967C28.5055 22.6921 28.0411 21.9373 28.0411 21.0719C28.0411 19.7788 29.0704 18.7317 30.3416 18.7317C31.6127 18.7317 32.642 19.7788 32.642 21.0719C32.642 21.9373 32.1793 22.6921 31.491 23.0967Z" fill="#2ABBDD"/>
</svg>
