<svg width="120" height="36" viewBox="0 0 120 36" fill="none" xmlns="http://www.w3.org/2000/svg">
<g clip-path="url(#clip0_1_16172)">
<path d="M0.141655 24.7386C0.141655 22.9505 0.111325 21.4535 0.0175781 20.1142H3.30008L3.45587 22.4122H3.54686C4.28994 21.1993 5.65202 19.7619 8.19144 19.7619C10.1739 19.7619 11.7207 20.9124 12.3714 22.6337H12.4349C12.9615 21.773 13.5791 21.1339 14.2905 20.6894C15.1273 20.0815 16.0896 19.7619 17.3262 19.7619C19.8353 19.7619 22.372 21.516 22.372 26.4955V35.6478H18.6566V27.0665C18.6566 24.4844 17.7894 22.9505 15.9628 22.9505C14.6627 22.9505 13.7018 23.9106 13.3006 25.0269C13.189 25.453 13.1265 25.8911 13.1145 26.3322V35.6492H9.39912V26.6503C9.39912 24.4858 8.56367 22.9519 6.79766 22.9519C5.37629 22.9519 4.41677 24.1023 4.07211 25.1846C3.91909 25.5681 3.85567 26.0169 3.85567 26.46V35.6492H0.141655V24.7386ZM36.8489 31.9182C36.8489 33.32 36.911 34.6905 37.064 35.6492H33.6271L33.3803 33.9279H33.2866C32.3574 35.1408 30.7775 35.9986 28.8308 35.9986C25.7951 35.9986 24.0925 33.7361 24.0925 31.3742C24.0925 27.4471 27.4646 25.4729 33.0412 25.5041V25.2499C33.0412 24.2273 32.6372 22.5372 29.9737 22.5372C28.4862 22.5372 26.9394 23.0172 25.9178 23.6848L25.1747 21.1325C26.29 20.4295 28.2408 19.7605 30.6231 19.7605C35.4551 19.7605 36.8503 22.9221 36.8503 26.2995L36.8489 31.9182ZM33.1321 28.0592C30.4369 27.9939 27.8686 28.6004 27.8686 30.9609C27.8686 32.4919 28.8308 33.195 30.0371 33.195C31.5522 33.195 32.6689 32.171 33.0094 31.056C33.0928 30.7773 33.1347 30.4871 33.1335 30.1953V28.0592H33.1321ZM39.4793 24.7386C39.4793 22.9505 39.4476 21.4535 39.358 20.1142H42.6984L42.8832 22.4463H42.9769C43.6262 21.2319 45.2682 19.7619 47.7759 19.7619C50.4091 19.7619 53.1319 21.516 53.1319 26.4316V35.6478H49.3241V26.8776C49.3241 24.6449 48.5176 22.949 46.4442 22.949C44.929 22.949 43.873 24.0668 43.4718 25.2485C43.3478 25.5979 43.3174 26.0779 43.3174 26.5211V35.6464H39.478L39.4793 24.7386ZM69.645 13.8734V31.279C69.645 32.874 69.7084 34.5997 69.7691 35.6492H66.3653L66.2095 33.195H66.1461C65.25 34.9164 63.4205 36.0001 61.2244 36.0001C57.6317 36.0001 54.7848 32.8428 54.7848 28.0607C54.7517 22.8596 57.9088 19.7633 61.5346 19.7633C63.608 19.7633 65.0942 20.6567 65.7752 21.81H65.84V13.8748H69.6464V13.8734H69.645ZM65.8386 26.5892C65.8386 26.2725 65.8083 25.889 65.7449 25.5681C65.4044 24.0398 64.1995 22.7942 62.4638 22.7942C60.0181 22.7942 58.6532 25.0283 58.6532 27.93C58.6532 30.7663 60.0167 32.8413 62.4334 32.8413C63.9789 32.8413 65.3423 31.7548 65.7132 30.0647C65.8069 29.7153 65.84 29.3304 65.84 28.9171V26.5892H65.8386ZM72.3389 35.6492V20.1142H76.1811V35.6492H72.3389ZM78.8722 25.1235C78.8722 23.0186 78.8432 21.5174 78.7508 20.1156H82.0637L82.185 23.0797H82.3105C83.0535 20.8797 84.8168 20.1156 86.4312 20.1156C86.802 20.1156 87.0171 20.0502 87.3259 20.1156V23.5626C86.9605 23.4793 86.5875 23.4365 86.2133 23.4348C84.3825 23.4348 83.1445 24.6477 82.8054 26.3989C82.7304 26.7998 82.6893 27.2065 82.6827 27.6147V35.6507H78.8722V25.1235ZM89.0933 35.6492V20.1142H92.93V35.6492H89.0933Z" fill="#0D2B5B"/>
<path d="M116.83 3.68419C114.929 1.45007 112.908 2.46132 111.302 3.28366C110.626 3.62737 105.75 6.47505 105.75 6.47505C103.078 7.60986 100.998 6.37137 100.182 5.32888C100.104 5.23002 100.033 5.12508 99.9707 5.01499L99.7804 4.67555C99.4589 4.1026 99.1015 3.55179 98.7106 3.02659C98.4734 2.70825 98.2164 2.40605 97.9413 2.12187C96.1133 0.220105 93.192 -1.11071 88.3089 1.30662C85.9969 2.68714 78.4655 7.11986 78.4655 7.11986C75.6352 8.32 73.4707 6.85853 72.7676 5.78621C72.736 5.74606 72.7083 5.70277 72.6849 5.65696L72.5926 5.49505L72.1155 4.69117C71.9003 4.33903 71.6694 3.99732 71.4235 3.66714C71.1839 3.35083 70.9266 3.04922 70.6528 2.76384C68.8372 0.873436 65.931 -0.454532 61.0907 1.91735C58.1639 3.63874 51.3562 7.64821 51.3562 7.64821L51.3534 7.65105L46.3711 10.5839L48.9491 13.8449C50.0341 14.9101 52.0731 16.6571 55.2274 15.1843C55.2274 15.1843 63.9334 9.99026 63.9679 9.97464C71.4111 5.76633 75.0837 9.78716 76.7078 12.4672C76.7643 12.551 76.8098 12.6419 76.8608 12.7229L76.8635 12.7272C76.8842 12.7598 76.8966 12.7896 76.9145 12.8209L77.0979 13.1305C77.8892 14.3662 79.1369 15.1644 80.6244 15.1274C81.4447 15.1104 82.0017 14.8349 82.8123 14.3704L91.2357 9.33693L91.2536 9.32841C98.7906 5.06897 102.525 9.35255 104.12 12.0326C104.244 12.2641 104.385 12.4857 104.53 12.6916C105.32 13.7952 106.409 14.5181 107.793 14.4826C108.707 14.4642 109.731 13.8989 109.884 13.7952L119.983 7.79024C119.986 7.79308 118.954 6.18673 116.83 3.68419Z" fill="#FDD213"/>
</g>
<defs>
<clipPath id="clip0_1_16172">
<rect width="120" height="36" fill="white"/>
</clipPath>
</defs>
</svg>
