<svg width="105" height="68" viewBox="0 0 105 68" fill="none" xmlns="http://www.w3.org/2000/svg">
<path fill-rule="evenodd" clip-rule="evenodd" d="M15.937 21.7857H42.2713C44.0211 21.7857 45.4501 23.2175 45.4501 24.9708V43.4383C45.4501 45.1916 44.0211 46.6234 42.2713 46.6234H15.1788C13.429 46.6234 12 45.1916 12 43.4383V20.6169C12 19.7987 12.6708 19.2143 13.5165 19.1266L37.7802 16C38.5968 16 39.2967 16.7013 39.2967 17.5195V20.0909H14.4205C14.4205 21.1721 14.7413 21.7857 15.937 21.7857ZM30.7227 42.0065C28.5063 42.4156 25.6483 41.6851 24.1027 40.0195C23.4028 39.2597 24.5401 38.1201 25.2401 38.8799C26.2608 40.0195 28.1272 40.5455 29.6437 40.5162C31.5685 40.4578 33.2891 38.7046 32.21 36.7468C30.6936 34.0292 26.9315 34.789 25.0068 32.6558C23.4611 30.9026 24.1902 28.2143 26.0275 26.987C27.9231 25.7305 31.2185 25.789 32.7933 27.6007C33.4641 28.3604 32.3267 29.5 31.6559 28.711C30.3728 27.2792 27.3981 27.4545 26.2608 28.974C24.6276 31.1071 27.0773 32.2468 28.7688 32.7727C31.1018 33.474 33.6682 34.7597 34.1056 37.4481C34.4556 39.6104 32.7641 41.5974 30.7227 42.0065Z" fill="#EE4E2C"/>
<path fill-rule="evenodd" clip-rule="evenodd" d="M30.7222 42.0065C28.5058 42.4448 25.6479 41.6851 24.1022 40.0195C23.4023 39.2597 24.5397 38.1201 25.2396 38.8799C26.2603 40.0195 28.1267 40.5454 29.6432 40.5162C31.568 40.4578 33.2886 38.7045 32.2096 36.7467C30.6931 34.0292 26.931 34.789 25.0063 32.6558C23.4606 30.9026 24.1897 28.2143 26.027 26.987C27.9226 25.7305 31.218 25.789 32.7928 27.6007C33.4636 28.3604 32.3262 29.5 31.6555 28.711C30.3723 27.2792 27.3976 27.4546 26.2603 28.974C24.6271 31.1071 27.0768 32.2468 28.7683 32.7727C31.1014 33.474 33.6677 34.7597 34.1052 37.448C34.4551 39.6104 32.7637 41.5974 30.7222 42.0065Z" fill="#FEFEFE"/>
<path d="M76.0426 20.6461C75.1094 20.6461 74.2637 21.0552 73.6804 21.6688V20.9383C73.6804 20.2663 72.6305 20.2663 72.6305 20.9383V29.6461C72.6305 30.3182 73.6804 30.3182 73.6804 29.6461V25.789C74.2637 26.4026 75.1094 26.8117 76.0426 26.8117C77.7924 26.8117 79.2214 25.4383 79.2214 23.7143C79.2214 22.0195 77.7924 20.6461 76.0426 20.6461ZM76.0426 25.7013C74.9344 25.7013 74.0304 24.8247 74.0304 23.7143C74.0304 22.75 74.7594 21.9318 75.7218 21.7857H75.751C75.8385 21.7565 75.9551 21.7565 76.0426 21.7565C76.8883 21.7565 77.5883 22.2533 77.9091 22.9253V22.9546C78.0257 23.1883 78.084 23.4513 78.084 23.7143C78.084 24.8247 77.18 25.7013 76.0426 25.7013ZM68.1977 26.8117C66.448 26.8117 65.019 25.4383 65.019 23.7143C65.019 22.0195 66.448 20.6461 68.1977 20.6461C69.9184 20.6461 71.3474 22.0195 71.3474 23.7143C71.3474 25.4383 69.9184 26.8117 68.1977 26.8117ZM68.1977 21.7565C67.0604 21.7565 66.1563 22.6331 66.1563 23.7143C66.1563 24.8247 67.0604 25.7013 68.1977 25.7013C69.3059 25.7013 70.21 24.8247 70.21 23.7143C70.21 22.6331 69.3059 21.7565 68.1977 21.7565ZM93.6571 23.6559C93.628 22.2533 92.8989 20.9675 91.3532 20.6753C90.0117 20.4416 88.4661 21.1137 87.8828 22.3409C87.2996 23.5974 87.5329 25.3214 88.6994 26.1981C89.9534 27.1331 91.9365 26.8409 93.2197 26.1396C93.8029 25.8182 93.278 24.9416 92.6656 25.263C91.849 25.7013 90.7991 25.9351 89.8659 25.6136C89.1952 25.4091 88.8161 24.8247 88.6994 24.1818H93.1322C93.3947 24.1818 93.6571 23.9481 93.6571 23.6559ZM88.7286 23.1591C88.7286 23.1007 88.7577 23.0714 88.7577 23.0422C89.0202 22.1948 89.8951 21.6981 90.77 21.6688C91.7907 21.6396 92.3448 22.3409 92.5198 23.1591H88.7286ZM86.5705 23.6851C86.5413 22.2533 85.7831 20.9675 84.2374 20.7046C82.8959 20.4416 81.3503 21.1429 80.7962 22.3409C80.1838 23.5974 80.4462 25.3214 81.6128 26.1981C82.8668 27.1623 84.8207 26.8701 86.1039 26.1688C86.7163 25.8474 86.1622 24.9416 85.579 25.263C84.7624 25.7013 83.6833 25.9351 82.7793 25.6429C82.0794 25.4091 81.7003 24.8247 81.5836 24.1818H86.0164C86.308 24.1818 86.5705 23.9481 86.5705 23.6851ZM81.6419 23.1591C81.6419 23.1299 81.6419 23.0714 81.6711 23.0422C81.9044 22.1948 82.7793 21.6981 83.6833 21.6981C84.6749 21.6688 85.2582 22.3409 85.4331 23.1591H81.6419ZM63.7649 22.6916V26.2857C63.7649 26.9578 62.6859 26.9578 62.6859 26.2857V22.75C62.6568 22.0487 62.0735 21.7273 62.0443 21.7273C61.2861 21.3766 59.9154 21.552 59.0989 22.5747V26.2857C59.0989 26.9578 58.0198 26.9578 58.0198 26.2857V17.0228C58.0198 16.3507 59.0989 16.3507 59.0989 17.0228V21.1721C60.382 20.2955 62.0443 20.4124 62.8317 20.9383C62.8317 20.9383 63.7941 21.4643 63.7649 22.6916ZM56.27 17.4611C55.2202 16.2922 53.0329 16.263 51.7498 17.0812C50.5541 17.8409 50.0583 19.5942 51.079 20.7046C52.3622 22.0779 54.8702 21.5812 55.8909 23.3344C56.62 24.5909 55.4535 25.7305 54.1703 25.7597C53.1787 25.7597 51.9247 25.4383 51.2248 24.7078C50.7582 24.2403 50 24.9416 50.4666 25.4383C51.5164 26.5195 53.412 26.987 54.8994 26.724C56.27 26.461 57.3782 25.1753 57.1449 23.7727C56.8825 22.0487 55.1327 21.2305 53.587 20.763C52.4497 20.4416 50.8457 19.7111 51.9247 18.3377C52.683 17.3734 54.6661 17.2565 55.5118 18.1916C55.9784 18.6883 56.7075 17.9578 56.27 17.4611Z" fill="#EE4E2C"/>
<path fill-rule="evenodd" clip-rule="evenodd" d="M84.0912 52H80.6791L84.3245 45.1331L78.3752 33.8539H82.0498L86.1618 41.6559L90.2738 33.8539H93.6567L84.0912 52ZM50.3203 46.6234H53.1783V41.4221H56.9987C60.9648 41.4221 64.1728 38.6169 64.1728 35.1981C64.1728 31.75 60.9648 28.9448 56.9987 28.9448H50.3203C50.3203 34.8474 50.3203 40.7208 50.3203 46.6234ZM53.1783 38.5585V31.8085H56.9987C59.1567 31.8085 60.9065 33.2987 60.9065 35.1688C60.9065 37.039 59.1567 38.5585 56.9987 38.5585H53.1783ZM74.8173 33.9708H77.3253V46.5065H74.8173V45.1039C73.7091 46.039 72.2801 46.6234 70.7053 46.6234C67.1766 46.6234 64.3186 43.7597 64.3186 40.224C64.3186 36.7175 67.1766 33.8539 70.7053 33.8539C72.2801 33.8539 73.7091 34.4383 74.8173 35.3734V33.9708ZM70.7053 36.5422C72.7176 36.5422 74.3799 38.2078 74.3799 40.224C74.3799 42.2695 72.7176 43.9351 70.7053 43.9351C68.6639 43.9351 67.0016 42.2695 67.0016 40.224C67.0016 38.2078 68.6639 36.5422 70.7053 36.5422Z" fill="#EE4E2C"/>
</svg>
